<?xml version="1.0" standalone="no"?>
<!DOCTYPE svg PUBLIC "-//W3C//DTD SVG 20010904//EN"
 "http://www.w3.org/TR/2001/REC-SVG-20010904/DTD/svg10.dtd">
<svg version="1.0" xmlns="http://www.w3.org/2000/svg"
 width="291.000000pt" height="291.000000pt" viewBox="0 0 291.000000 291.000000"
 preserveAspectRatio="xMidYMid meet">
<metadata>
Created by potrace 1.11, written by Peter Selinger 2001-2013
</metadata>
<g transform="translate(0.000000,291.000000) scale(0.100000,-0.100000)"
fill="#000000" stroke="none">
<path d="M940 2810 c0 -5 4 -10 10 -10 5 0 14 -9 20 -20 26 -50 -33 -80 -205
-106 -22 -3 -43 -8 -46 -10 -23 -14 -82 -12 -155 6 -47 11 -96 20 -108 20 -63
0 -81 -66 -34 -130 67 -91 46 -167 -78 -287 -53 -51 -82 -88 -100 -130 -27
-60 -74 -248 -74 -296 0 -67 -65 -195 -139 -275 -56 -60 -27 -124 51 -113 3 0
46 2 95 5 121 6 144 -5 173 -81 28 -77 85 -162 165 -248 35 -38 72 -85 81
-103 31 -66 21 -180 -25 -282 -24 -53 -27 -93 -6 -110 28 -23 43 -15 230 136
33 26 56 30 87 13 26 -14 18 -45 -33 -127 -22 -34 -42 -75 -45 -91 -5 -24 -2
-29 18 -34 35 -9 68 -1 156 38 90 39 119 39 288 -1 65 -15 134 -24 184 -24
l80 0 25 40 c15 23 57 62 102 92 108 74 142 105 180 165 42 65 72 88 205 152
194 92 213 159 108 389 l-48 107 33 32 c53 50 78 108 78 178 0 158 -3 167 -88
270 -38 47 -54 74 -50 86 10 29 -11 56 -78 101 -64 43 -96 75 -97 94 0 6 7 25
16 43 24 48 14 132 -24 207 -36 72 -81 129 -93 117 -5 -5 -11 -33 -15 -63 -7
-63 -24 -92 -24 -42 0 63 -35 111 -132 183 -65 49 -199 105 -225 95 -7 -3 -13
-17 -13 -31 0 -36 -24 -32 -86 15 l-53 40 -156 0 c-97 0 -155 -4 -155 -10z
m335 -190 c44 -12 86 -27 94 -35 12 -12 16 -9 30 18 20 39 37 43 77 18 34 -21
69 -84 79 -143 l7 -37 -29 8 c-16 5 -44 16 -62 26 -37 19 -53 9 -49 -30 5 -40
-29 -34 -84 14 -42 37 -78 52 -158 66 -45 8 -101 35 -107 52 -3 8 -1 25 5 39
10 21 18 24 64 24 29 0 89 -9 133 -20z m-590 -138 c6 -14 16 -20 30 -17 56 12
112 16 237 16 125 0 141 -2 168 -21 38 -27 50 -68 25 -87 -25 -18 -56 -16
-107 4 -34 14 -74 18 -184 18 l-141 0 -71 -36 c-39 -20 -73 -34 -77 -31 -20
21 17 118 62 160 29 26 44 25 58 -6z m1003 1 c29 -76 25 -145 -9 -164 -43 -22
-53 18 -35 141 2 14 4 31 5 38 2 23 28 12 39 -15z m-866 -180 c22 -20 23 -41
3 -70 -8 -11 -31 -83 -50 -158 -34 -132 -77 -234 -102 -242 -25 -9 -25 61 0
118 38 86 40 106 16 130 l-21 21 -23 -22 c-28 -26 -42 -20 -61 27 -12 27 -12
41 -3 73 29 95 184 175 241 123z m679 -19 c64 -14 73 -20 112 -67 73 -88 94
-107 121 -107 32 0 39 13 42 78 1 29 9 64 18 77 20 31 48 23 42 -11 -9 -48 16
-81 150 -204 149 -138 157 -153 89 -177 -37 -13 -54 -13 -205 -1 -56 5 -127
-41 -115 -74 8 -21 56 -38 106 -38 127 0 142 -99 30 -203 -57 -53 -106 -80
-181 -99 -66 -17 -82 -17 -87 -1 -5 14 76 63 105 63 23 0 40 36 24 52 -12 12
-77 14 -154 4 -59 -7 -80 3 -59 28 16 19 103 43 168 45 16 1 20 6 16 22 -16
61 -127 71 -224 21 -68 -35 -116 -41 -126 -16 -11 29 49 60 132 69 14 1 7 27
-13 47 -27 28 -61 27 -147 -3 -44 -16 -90 -26 -102 -23 -23 6 -44 50 -38 81 2
10 4 23 4 29 1 5 14 31 30 56 l30 46 100 -26 c101 -27 125 -26 192 2 13 6 19
-1 25 -30 11 -43 37 -65 56 -46 14 14 14 96 -2 136 -44 117 -196 186 -347 159
-37 -7 -59 -7 -81 3 -69 29 -48 65 26 45 64 -18 82 -19 120 -9 42 11 41 35 -3
54 -81 34 21 46 146 18z m-980 -221 c-2 -48 -4 -108 -5 -133 -4 -99 37 -250
73 -269 25 -14 58 5 87 49 53 79 74 19 42 -115 -28 -114 -27 -167 5 -230 41
-83 60 -198 46 -285 -8 -52 -45 -124 -58 -115 -4 2 -4 30 0 62 19 146 19 163
-3 226 -29 84 -41 101 -112 152 -108 77 -111 82 -111 194 0 68 -4 103 -14 114
-15 19 -36 23 -25 5 5 -7 2 -9 -7 -6 -9 3 -34 -11 -59 -34 -25 -22 -53 -44
-62 -49 -29 -16 -14 41 43 157 42 87 52 118 54 168 4 99 23 164 63 209 14 16
17 16 31 3 11 -12 14 -35 12 -103z m953 11 c19 -7 21 -40 4 -47 -16 -5 -68 9
-82 23 -16 16 46 36 78 24z m-387 -10 l22 -6 -29 -52 c-70 -124 -82 -231 -36
-330 15 -32 44 -84 65 -115 63 -93 99 -162 125 -242 46 -140 50 -257 10 -286
-27 -19 -36 -12 -53 41 -9 26 -20 49 -26 49 -13 3 -50 -66 -76 -138 -26 -76
-52 -120 -70 -120 -15 0 -15 2 -6 100 6 68 -7 105 -72 198 -71 100 -85 147
-67 222 2 11 5 26 5 33 2 25 27 10 54 -32 41 -66 52 -72 72 -42 20 30 16 56
-29 228 -43 165 -43 245 2 367 18 47 42 95 54 108 24 25 24 25 55 17z m1067
-306 c28 -44 21 -132 -14 -163 -26 -23 -63 -16 -71 15 -14 50 -10 133 8 152
22 25 59 23 77 -4z m-124 -262 c0 -19 -12 -26 -55 -31 -42 -6 -46 9 -7 29 35
19 62 20 62 2z m-613 -171 c37 -95 56 -126 82 -136 20 -8 29 -5 56 21 17 16
36 30 43 30 6 0 27 -33 46 -74 34 -74 55 -96 89 -91 41 7 -6 -116 -83 -215
-44 -58 -138 -150 -152 -150 -21 0 5 68 64 170 27 45 50 124 40 134 -12 12
-68 -43 -135 -133 -88 -119 -129 -159 -172 -167 -72 -13 -66 14 26 114 108
118 113 158 55 389 -26 102 -32 154 -19 167 17 17 39 -4 60 -59z m660 39 c47
-9 63 -92 33 -162 -33 -74 -62 -91 -82 -47 -12 26 -45 42 -58 28 -5 -4 -23
-35 -40 -68 -31 -57 -54 -85 -72 -85 -13 0 -10 36 9 106 22 82 12 93 -46 53
-42 -27 -45 -28 -63 -13 -27 26 -24 94 6 127 53 57 196 85 313 61z"/>
<path d="M2415 1757 c-80 -64 -135 -124 -135 -147 0 -20 3 -22 37 -17 63 11
149 115 141 173 l-3 24 -40 -33z"/>
<path d="M2554 1675 c-24 -24 -60 -52 -80 -61 -41 -20 -72 -60 -57 -75 10 -10
66 5 155 43 64 27 104 92 77 125 -20 24 -51 14 -95 -32z"/>
<path d="M2475 1481 c-11 -5 -49 -11 -85 -15 -116 -12 -141 -26 -124 -70 16
-43 215 4 268 63 11 12 15 21 10 22 -5 0 -18 2 -29 4 -11 2 -29 0 -40 -4z"/>
<path d="M2599 1390 c-49 -14 -99 -48 -99 -68 0 -5 19 -6 43 -2 69 10 162 2
221 -21 76 -28 92 -24 66 18 -35 58 -152 95 -231 73z"/>
<path d="M2317 1269 c-28 -16 -11 -27 51 -34 168 -18 178 -21 248 -66 33 -21
66 -39 72 -39 35 0 -17 78 -70 106 -66 34 -262 56 -301 33z"/>
<path d="M2480 1135 c0 -29 63 -101 107 -124 43 -22 144 -7 118 18 -6 5 -35
19 -65 32 -30 12 -73 35 -94 51 -37 26 -66 36 -66 23z"/>
<path d="M2307 1111 c-7 -28 18 -89 48 -117 32 -29 108 -69 151 -78 37 -8 48
8 30 42 -11 20 -202 172 -217 172 -4 0 -9 -8 -12 -19z"/>
<path d="M338 244 l-56 -144 39 0 c32 0 41 5 51 25 11 23 16 25 71 24 52 -2
60 -5 68 -26 7 -19 16 -23 49 -23 l40 0 -21 52 c-11 29 -37 94 -56 145 l-35
91 -47 0 -46 1 -57 -145z m136 -20 c6 -19 2 -21 -31 -20 -42 1 -44 10 -16 76
l15 35 13 -35 c6 -19 15 -44 19 -56z"/>
<path d="M642 245 l0 -145 38 0 c39 0 39 0 42 43 2 23 2 88 0 145 l-3 102 -38
0 -38 0 -1 -145z"/>
<path d="M799 350 c0 -22 -1 -56 -1 -75 0 -19 1 -66 1 -105 l1 -70 38 0 38 0
1 46 c1 26 5 50 10 55 18 18 51 -4 74 -51 23 -47 26 -49 66 -50 36 0 41 3 36
18 -10 26 -55 96 -67 104 -7 5 -5 11 6 20 25 19 39 64 29 91 -16 42 -37 50
-136 53 l-95 4 -1 -40z m155 -43 c7 -28 -10 -47 -44 -47 -31 0 -38 10 -32 49
3 24 7 26 37 23 23 -3 35 -10 39 -25z"/>
<path d="M1296 251 c1 -75 2 -139 3 -143 1 -5 48 -8 106 -8 58 0 105 3 106 8
0 4 2 15 4 25 3 18 -2 19 -87 19 -38 -1 -48 3 -49 16 -1 9 -2 62 -3 117 l-1
100 -40 1 -40 1 1 -136z"/>
<path d="M1563 245 l0 -145 38 0 c34 0 39 3 40 23 1 34 1 230 0 250 -1 13 -10
17 -39 17 l-38 0 -1 -145z"/>
<path d="M1784 380 c-23 -9 -73 -65 -75 -83 -11 -89 4 -142 49 -177 20 -16 40
-20 101 -20 70 0 80 3 108 28 38 33 52 73 47 132 -8 84 -63 130 -154 129 -30
0 -64 -4 -76 -9z m121 -62 c57 -50 24 -183 -42 -172 -7 1 -20 2 -28 3 -27 2
-53 58 -49 104 4 46 39 87 74 87 10 0 30 -10 45 -22z"/>
<path d="M2079 381 c-3 -20 -4 -258 -1 -269 2 -6 19 -12 38 -12 l34 0 0 93 c1
106 1 106 71 -21 l40 -72 44 0 45 0 0 146 0 145 -37 -3 -37 -3 0 -92 c0 -62
-4 -89 -11 -83 -5 5 -30 47 -55 94 l-45 86 -42 -2 c-24 -1 -43 -4 -44 -7z"/>
<path d="M1109 235 c-10 -45 -4 -50 56 -51 63 -2 76 5 68 37 -5 16 -15 19 -64
19 -33 0 -59 -2 -60 -5z"/>
</g>
</svg>
